<?xml version="1.0" encoding="utf-8" standalone="no"?>
<!DOCTYPE svg PUBLIC "-//W3C//DTD SVG 1.1//EN"
  "http://www.w3.org/Graphics/SVG/1.1/DTD/svg11.dtd">
<!-- Created with matplotlib (https://matplotlib.org/) -->
<svg height="288pt" version="1.1" viewBox="0 0 432 288" width="432pt" xmlns="http://www.w3.org/2000/svg" xmlns:xlink="http://www.w3.org/1999/xlink">
 <defs>
  <style type="text/css">
*{stroke-linecap:butt;stroke-linejoin:round;}
  </style>
 </defs>
 <g id="figure_1">
  <g id="patch_1">
   <path d="M 0 288 
L 432 288 
L 432 0 
L 0 0 
z
" style="fill:#ffffff;"/>
  </g>
  <g id="axes_1">
   <g id="patch_2">
    <path d="M 54 252 
L 388.8 252 
L 388.8 34.56 
L 54 34.56 
z
" style="fill:#eaeaf2;"/>
   </g>
   <g id="matplotlib.axis_1">
    <g id="xtick_1">
     <g id="line2d_1">
      <path clip-path="url(#p702e582980)" d="M 61.590021 252 
L 61.590021 34.56 
" style="fill:none;stroke:#ffffff;stroke-linecap:round;stroke-width:0.8;"/>
     </g>
     <g id="line2d_2"/>
     <g id="text_1">
      <!-- 50 -->
      <defs>
       <path d="M 4.15625 18.75 
L 13.375 19.53125 
Q 14.40625 12.796875 18.140625 9.390625 
Q 21.875 6 27.15625 6 
Q 33.5 6 37.890625 10.78125 
Q 42.28125 15.578125 42.28125 23.484375 
Q 42.28125 31 38.0625 35.34375 
Q 33.84375 39.703125 27 39.703125 
Q 22.75 39.703125 19.328125 37.765625 
Q 15.921875 35.84375 13.96875 32.765625 
L 5.71875 33.84375 
L 12.640625 70.609375 
L 48.25 70.609375 
L 48.25 62.203125 
L 19.671875 62.203125 
L 15.828125 42.96875 
Q 22.265625 47.46875 29.34375 47.46875 
Q 38.71875 47.46875 45.15625 40.96875 
Q 51.609375 34.46875 51.609375 24.265625 
Q 51.609375 14.546875 45.953125 7.46875 
Q 39.0625 -1.21875 27.15625 -1.21875 
Q 17.390625 -1.21875 11.203125 4.25 
Q 5.03125 9.71875 4.15625 18.75 
z
" id="ArialMT-53"/>
       <path d="M 4.15625 35.296875 
Q 4.15625 48 6.765625 55.734375 
Q 9.375 63.484375 14.515625 67.671875 
Q 19.671875 71.875 27.484375 71.875 
Q 33.25 71.875 37.59375 69.546875 
Q 41.9375 67.234375 44.765625 62.859375 
Q 47.609375 58.5 49.21875 52.21875 
Q 50.828125 45.953125 50.828125 35.296875 
Q 50.828125 22.703125 48.234375 14.96875 
Q 45.65625 7.234375 40.5 3 
Q 35.359375 -1.21875 27.484375 -1.21875 
Q 17.140625 -1.21875 11.234375 6.203125 
Q 4.15625 15.140625 4.15625 35.296875 
z
M 13.1875 35.296875 
Q 13.1875 17.671875 17.3125 11.828125 
Q 21.4375 6 27.484375 6 
Q 33.546875 6 37.671875 11.859375 
Q 41.796875 17.71875 41.796875 35.296875 
Q 41.796875 52.984375 37.671875 58.78125 
Q 33.546875 64.59375 27.390625 64.59375 
Q 21.34375 64.59375 17.71875 59.46875 
Q 13.1875 52.9375 13.1875 35.296875 
z
" id="ArialMT-48"/>
      </defs>
      <g style="fill:#262626;" transform="translate(56.585177 261.942031)scale(0.09 -0.09)">
       <use xlink:href="#ArialMT-53"/>
       <use x="55.615234" xlink:href="#ArialMT-48"/>
      </g>
     </g>
    </g>
    <g id="xtick_2">
     <g id="line2d_3">
      <path clip-path="url(#p702e582980)" d="M 99.730827 252 
L 99.730827 34.56 
" style="fill:none;stroke:#ffffff;stroke-linecap:round;stroke-width:0.8;"/>
     </g>
     <g id="line2d_4"/>
     <g id="text_2">
      <!-- 55 -->
      <g style="fill:#262626;" transform="translate(94.725983 261.942031)scale(0.09 -0.09)">
       <use xlink:href="#ArialMT-53"/>
       <use x="55.615234" xlink:href="#ArialMT-53"/>
      </g>
     </g>
    </g>
    <g id="xtick_3">
     <g id="line2d_5">
      <path clip-path="url(#p702e582980)" d="M 137.871634 252 
L 137.871634 34.56 
" style="fill:none;stroke:#ffffff;stroke-linecap:round;stroke-width:0.8;"/>
     </g>
     <g id="line2d_6"/>
     <g id="text_3">
      <!-- 60 -->
      <defs>
       <path d="M 49.75 54.046875 
L 41.015625 53.375 
Q 39.84375 58.546875 37.703125 60.890625 
Q 34.125 64.65625 28.90625 64.65625 
Q 24.703125 64.65625 21.53125 62.3125 
Q 17.390625 59.28125 14.984375 53.46875 
Q 12.59375 47.65625 12.5 36.921875 
Q 15.671875 41.75 20.265625 44.09375 
Q 24.859375 46.4375 29.890625 46.4375 
Q 38.671875 46.4375 44.84375 39.96875 
Q 51.03125 33.5 51.03125 23.25 
Q 51.03125 16.5 48.125 10.71875 
Q 45.21875 4.9375 40.140625 1.859375 
Q 35.0625 -1.21875 28.609375 -1.21875 
Q 17.625 -1.21875 10.6875 6.859375 
Q 3.765625 14.9375 3.765625 33.5 
Q 3.765625 54.25 11.421875 63.671875 
Q 18.109375 71.875 29.4375 71.875 
Q 37.890625 71.875 43.28125 67.140625 
Q 48.6875 62.40625 49.75 54.046875 
z
M 13.875 23.1875 
Q 13.875 18.65625 15.796875 14.5 
Q 17.71875 10.359375 21.1875 8.171875 
Q 24.65625 6 28.46875 6 
Q 34.03125 6 38.03125 10.484375 
Q 42.046875 14.984375 42.046875 22.703125 
Q 42.046875 30.125 38.078125 34.390625 
Q 34.125 38.671875 28.125 38.671875 
Q 22.171875 38.671875 18.015625 34.390625 
Q 13.875 30.125 13.875 23.1875 
z
" id="ArialMT-54"/>
      </defs>
      <g style="fill:#262626;" transform="translate(132.86679 261.942031)scale(0.09 -0.09)">
       <use xlink:href="#ArialMT-54"/>
       <use x="55.615234" xlink:href="#ArialMT-48"/>
      </g>
     </g>
    </g>
    <g id="xtick_4">
     <g id="line2d_7">
      <path clip-path="url(#p702e582980)" d="M 176.01244 252 
L 176.01244 34.56 
" style="fill:none;stroke:#ffffff;stroke-linecap:round;stroke-width:0.8;"/>
     </g>
     <g id="line2d_8"/>
     <g id="text_4">
      <!-- 65 -->
      <g style="fill:#262626;" transform="translate(171.007596 261.942031)scale(0.09 -0.09)">
       <use xlink:href="#ArialMT-54"/>
       <use x="55.615234" xlink:href="#ArialMT-53"/>
      </g>
     </g>
    </g>
    <g id="xtick_5">
     <g id="line2d_9">
      <path clip-path="url(#p702e582980)" d="M 214.153247 252 
L 214.153247 34.56 
" style="fill:none;stroke:#ffffff;stroke-linecap:round;stroke-width:0.8;"/>
     </g>
     <g id="line2d_10"/>
     <g id="text_5">
      <!-- 70 -->
      <defs>
       <path d="M 4.734375 62.203125 
L 4.734375 70.65625 
L 51.078125 70.65625 
L 51.078125 63.8125 
Q 44.234375 56.546875 37.515625 44.484375 
Q 30.8125 32.421875 27.15625 19.671875 
Q 24.515625 10.6875 23.78125 0 
L 14.75 0 
Q 14.890625 8.453125 18.0625 20.40625 
Q 21.234375 32.375 27.171875 43.484375 
Q 33.109375 54.59375 39.796875 62.203125 
z
" id="ArialMT-55"/>
      </defs>
      <g style="fill:#262626;" transform="translate(209.148403 261.942031)scale(0.09 -0.09)">
       <use xlink:href="#ArialMT-55"/>
       <use x="55.615234" xlink:href="#ArialMT-48"/>
      </g>
     </g>
    </g>
    <g id="xtick_6">
     <g id="line2d_11">
      <path clip-path="url(#p702e582980)" d="M 252.294053 252 
L 252.294053 34.56 
" style="fill:none;stroke:#ffffff;stroke-linecap:round;stroke-width:0.8;"/>
     </g>
     <g id="line2d_12"/>
     <g id="text_6">
      <!-- 75 -->
      <g style="fill:#262626;" transform="translate(247.28921 261.942031)scale(0.09 -0.09)">
       <use xlink:href="#ArialMT-55"/>
       <use x="55.615234" xlink:href="#ArialMT-53"/>
      </g>
     </g>
    </g>
    <g id="xtick_7">
     <g id="line2d_13">
      <path clip-path="url(#p702e582980)" d="M 290.43486 252 
L 290.43486 34.56 
" style="fill:none;stroke:#ffffff;stroke-linecap:round;stroke-width:0.8;"/>
     </g>
     <g id="line2d_14"/>
     <g id="text_7">
      <!-- 80 -->
      <defs>
       <path d="M 17.671875 38.8125 
Q 12.203125 40.828125 9.5625 44.53125 
Q 6.9375 48.25 6.9375 53.421875 
Q 6.9375 61.234375 12.546875 66.546875 
Q 18.171875 71.875 27.484375 71.875 
Q 36.859375 71.875 42.578125 66.421875 
Q 48.296875 60.984375 48.296875 53.171875 
Q 48.296875 48.1875 45.671875 44.5 
Q 43.0625 40.828125 37.75 38.8125 
Q 44.34375 36.671875 47.78125 31.875 
Q 51.21875 27.09375 51.21875 20.453125 
Q 51.21875 11.28125 44.71875 5.03125 
Q 38.234375 -1.21875 27.640625 -1.21875 
Q 17.046875 -1.21875 10.546875 5.046875 
Q 4.046875 11.328125 4.046875 20.703125 
Q 4.046875 27.6875 7.59375 32.390625 
Q 11.140625 37.109375 17.671875 38.8125 
z
M 15.921875 53.71875 
Q 15.921875 48.640625 19.1875 45.40625 
Q 22.46875 42.1875 27.6875 42.1875 
Q 32.765625 42.1875 36.015625 45.375 
Q 39.265625 48.578125 39.265625 53.21875 
Q 39.265625 58.0625 35.90625 61.359375 
Q 32.5625 64.65625 27.59375 64.65625 
Q 22.5625 64.65625 19.234375 61.421875 
Q 15.921875 58.203125 15.921875 53.71875 
z
M 13.09375 20.65625 
Q 13.09375 16.890625 14.875 13.375 
Q 16.65625 9.859375 20.171875 7.921875 
Q 23.6875 6 27.734375 6 
Q 34.03125 6 38.125 10.046875 
Q 42.234375 14.109375 42.234375 20.359375 
Q 42.234375 26.703125 38.015625 30.859375 
Q 33.796875 35.015625 27.4375 35.015625 
Q 21.234375 35.015625 17.15625 30.90625 
Q 13.09375 26.8125 13.09375 20.65625 
z
" id="ArialMT-56"/>
      </defs>
      <g style="fill:#262626;" transform="translate(285.430016 261.942031)scale(0.09 -0.09)">
       <use xlink:href="#ArialMT-56"/>
       <use x="55.615234" xlink:href="#ArialMT-48"/>
      </g>
     </g>
    </g>
    <g id="xtick_8">
     <g id="line2d_15">
      <path clip-path="url(#p702e582980)" d="M 328.575666 252 
L 328.575666 34.56 
" style="fill:none;stroke:#ffffff;stroke-linecap:round;stroke-width:0.8;"/>
     </g>
     <g id="line2d_16"/>
     <g id="text_8">
      <!-- 85 -->
      <g style="fill:#262626;" transform="translate(323.570823 261.942031)scale(0.09 -0.09)">
       <use xlink:href="#ArialMT-56"/>
       <use x="55.615234" xlink:href="#ArialMT-53"/>
      </g>
     </g>
    </g>
    <g id="xtick_9">
     <g id="line2d_17">
      <path clip-path="url(#p702e582980)" d="M 366.716473 252 
L 366.716473 34.56 
" style="fill:none;stroke:#ffffff;stroke-linecap:round;stroke-width:0.8;"/>
     </g>
     <g id="line2d_18"/>
     <g id="text_9">
      <!-- 90 -->
      <defs>
       <path d="M 5.46875 16.546875 
L 13.921875 17.328125 
Q 14.984375 11.375 18.015625 8.6875 
Q 21.046875 6 25.78125 6 
Q 29.828125 6 32.875 7.859375 
Q 35.9375 9.71875 37.890625 12.8125 
Q 39.84375 15.921875 41.15625 21.1875 
Q 42.484375 26.46875 42.484375 31.9375 
Q 42.484375 32.515625 42.4375 33.6875 
Q 39.796875 29.5 35.234375 26.875 
Q 30.671875 24.265625 25.34375 24.265625 
Q 16.453125 24.265625 10.296875 30.703125 
Q 4.15625 37.15625 4.15625 47.703125 
Q 4.15625 58.59375 10.578125 65.234375 
Q 17 71.875 26.65625 71.875 
Q 33.640625 71.875 39.421875 68.109375 
Q 45.21875 64.359375 48.21875 57.390625 
Q 51.21875 50.4375 51.21875 37.25 
Q 51.21875 23.53125 48.234375 15.40625 
Q 45.265625 7.28125 39.375 3.03125 
Q 33.5 -1.21875 25.59375 -1.21875 
Q 17.1875 -1.21875 11.859375 3.4375 
Q 6.546875 8.109375 5.46875 16.546875 
z
M 41.453125 48.140625 
Q 41.453125 55.71875 37.421875 60.15625 
Q 33.40625 64.59375 27.734375 64.59375 
Q 21.875 64.59375 17.53125 59.8125 
Q 13.1875 55.03125 13.1875 47.40625 
Q 13.1875 40.578125 17.3125 36.296875 
Q 21.4375 32.03125 27.484375 32.03125 
Q 33.59375 32.03125 37.515625 36.296875 
Q 41.453125 40.578125 41.453125 48.140625 
z
" id="ArialMT-57"/>
      </defs>
      <g style="fill:#262626;" transform="translate(361.711629 261.942031)scale(0.09 -0.09)">
       <use xlink:href="#ArialMT-57"/>
       <use x="55.615234" xlink:href="#ArialMT-48"/>
      </g>
     </g>
    </g>
    <g id="text_10">
     <!-- $\theta$ w.r.t a line perpendicular to face  -->
     <defs>
      <path d="M 45.515625 34.671875 
L 14.453125 34.671875 
Q 12.359375 20.0625 14.5 13.875 
Q 17.1875 6.25 24.46875 6.25 
Q 31.78125 6.25 37.359375 13.921875 
Q 42.234375 20.65625 45.515625 34.671875 
z
M 47.015625 42.96875 
Q 48.34375 56.84375 46.625 61.71875 
Q 43.953125 69.4375 36.765625 69.4375 
Q 29.296875 69.4375 23.828125 61.8125 
Q 19.53125 55.671875 16.15625 42.96875 
z
M 38.1875 76.765625 
Q 49.90625 76.765625 54.59375 66.40625 
Q 59.28125 56.109375 55.71875 37.84375 
Q 52.203125 19.625 43.453125 9.28125 
Q 34.765625 -1.125 23.046875 -1.125 
Q 11.28125 -1.125 6.640625 9.28125 
Q 2 19.625 5.515625 37.84375 
Q 9.078125 56.109375 17.71875 66.40625 
Q 26.421875 76.765625 38.1875 76.765625 
z
" id="DejaVuSans-Oblique-952"/>
      <path id="ArialMT-32"/>
      <path d="M 16.15625 0 
L 0.296875 51.859375 
L 9.375 51.859375 
L 17.625 21.921875 
L 20.703125 10.796875 
Q 20.90625 11.625 23.390625 21.484375 
L 31.640625 51.859375 
L 40.671875 51.859375 
L 48.4375 21.78125 
L 51.03125 11.859375 
L 54 21.875 
L 62.890625 51.859375 
L 71.4375 51.859375 
L 55.21875 0 
L 46.09375 0 
L 37.84375 31.0625 
L 35.84375 39.890625 
L 25.34375 0 
z
" id="ArialMT-119"/>
      <path d="M 9.078125 0 
L 9.078125 10.015625 
L 19.09375 10.015625 
L 19.09375 0 
z
" id="ArialMT-46"/>
      <path d="M 6.5 0 
L 6.5 51.859375 
L 14.40625 51.859375 
L 14.40625 44 
Q 17.4375 49.515625 20 51.265625 
Q 22.5625 53.03125 25.640625 53.03125 
Q 30.078125 53.03125 34.671875 50.203125 
L 31.640625 42.046875 
Q 28.421875 43.953125 25.203125 43.953125 
Q 22.3125 43.953125 20.015625 42.21875 
Q 17.71875 40.484375 16.75 37.40625 
Q 15.28125 32.71875 15.28125 27.15625 
L 15.28125 0 
z
" id="ArialMT-114"/>
      <path d="M 25.78125 7.859375 
L 27.046875 0.09375 
Q 23.34375 -0.6875 20.40625 -0.6875 
Q 15.625 -0.6875 12.984375 0.828125 
Q 10.359375 2.34375 9.28125 4.8125 
Q 8.203125 7.28125 8.203125 15.1875 
L 8.203125 45.015625 
L 1.765625 45.015625 
L 1.765625 51.859375 
L 8.203125 51.859375 
L 8.203125 64.703125 
L 16.9375 69.96875 
L 16.9375 51.859375 
L 25.78125 51.859375 
L 25.78125 45.015625 
L 16.9375 45.015625 
L 16.9375 14.703125 
Q 16.9375 10.9375 17.40625 9.859375 
Q 17.875 8.796875 18.921875 8.15625 
Q 19.96875 7.515625 21.921875 7.515625 
Q 23.390625 7.515625 25.78125 7.859375 
z
" id="ArialMT-116"/>
      <path d="M 40.4375 6.390625 
Q 35.546875 2.25 31.03125 0.53125 
Q 26.515625 -1.171875 21.34375 -1.171875 
Q 12.796875 -1.171875 8.203125 3 
Q 3.609375 7.171875 3.609375 13.671875 
Q 3.609375 17.484375 5.34375 20.625 
Q 7.078125 23.78125 9.890625 25.6875 
Q 12.703125 27.59375 16.21875 28.5625 
Q 18.796875 29.25 24.03125 29.890625 
Q 34.671875 31.15625 39.703125 32.90625 
Q 39.75 34.71875 39.75 35.203125 
Q 39.75 40.578125 37.25 42.78125 
Q 33.890625 45.75 27.25 45.75 
Q 21.046875 45.75 18.09375 43.578125 
Q 15.140625 41.40625 13.71875 35.890625 
L 5.125 37.0625 
Q 6.296875 42.578125 8.984375 45.96875 
Q 11.671875 49.359375 16.75 51.1875 
Q 21.828125 53.03125 28.515625 53.03125 
Q 35.15625 53.03125 39.296875 51.46875 
Q 43.453125 49.90625 45.40625 47.53125 
Q 47.359375 45.171875 48.140625 41.546875 
Q 48.578125 39.3125 48.578125 33.453125 
L 48.578125 21.734375 
Q 48.578125 9.46875 49.140625 6.21875 
Q 49.703125 2.984375 51.375 0 
L 42.1875 0 
Q 40.828125 2.734375 40.4375 6.390625 
z
M 39.703125 26.03125 
Q 34.90625 24.078125 25.34375 22.703125 
Q 19.921875 21.921875 17.671875 20.9375 
Q 15.4375 19.96875 14.203125 18.09375 
Q 12.984375 16.21875 12.984375 13.921875 
Q 12.984375 10.40625 15.640625 8.0625 
Q 18.3125 5.71875 23.4375 5.71875 
Q 28.515625 5.71875 32.46875 7.9375 
Q 36.421875 10.15625 38.28125 14.015625 
Q 39.703125 17 39.703125 22.796875 
z
" id="ArialMT-97"/>
      <path d="M 6.390625 0 
L 6.390625 71.578125 
L 15.1875 71.578125 
L 15.1875 0 
z
" id="ArialMT-108"/>
      <path d="M 6.640625 61.46875 
L 6.640625 71.578125 
L 15.4375 71.578125 
L 15.4375 61.46875 
z
M 6.640625 0 
L 6.640625 51.859375 
L 15.4375 51.859375 
L 15.4375 0 
z
" id="ArialMT-105"/>
      <path d="M 6.59375 0 
L 6.59375 51.859375 
L 14.5 51.859375 
L 14.5 44.484375 
Q 20.21875 53.03125 31 53.03125 
Q 35.6875 53.03125 39.625 51.34375 
Q 43.5625 49.65625 45.515625 46.921875 
Q 47.46875 44.1875 48.25 40.4375 
Q 48.734375 37.984375 48.734375 31.890625 
L 48.734375 0 
L 39.9375 0 
L 39.9375 31.546875 
Q 39.9375 36.921875 38.90625 39.578125 
Q 37.890625 42.234375 35.28125 43.8125 
Q 32.671875 45.40625 29.15625 45.40625 
Q 23.53125 45.40625 19.453125 41.84375 
Q 15.375 38.28125 15.375 28.328125 
L 15.375 0 
z
" id="ArialMT-110"/>
      <path d="M 42.09375 16.703125 
L 51.171875 15.578125 
Q 49.03125 7.625 43.21875 3.21875 
Q 37.40625 -1.171875 28.375 -1.171875 
Q 17 -1.171875 10.328125 5.828125 
Q 3.65625 12.84375 3.65625 25.484375 
Q 3.65625 38.578125 10.390625 45.796875 
Q 17.140625 53.03125 27.875 53.03125 
Q 38.28125 53.03125 44.875 45.953125 
Q 51.46875 38.875 51.46875 26.03125 
Q 51.46875 25.25 51.421875 23.6875 
L 12.75 23.6875 
Q 13.234375 15.140625 17.578125 10.59375 
Q 21.921875 6.0625 28.421875 6.0625 
Q 33.25 6.0625 36.671875 8.59375 
Q 40.09375 11.140625 42.09375 16.703125 
z
M 13.234375 30.90625 
L 42.1875 30.90625 
Q 41.609375 37.453125 38.875 40.71875 
Q 34.671875 45.796875 27.984375 45.796875 
Q 21.921875 45.796875 17.796875 41.75 
Q 13.671875 37.703125 13.234375 30.90625 
z
" id="ArialMT-101"/>
      <path d="M 6.59375 -19.875 
L 6.59375 51.859375 
L 14.59375 51.859375 
L 14.59375 45.125 
Q 17.4375 49.078125 21 51.046875 
Q 24.5625 53.03125 29.640625 53.03125 
Q 36.28125 53.03125 41.359375 49.609375 
Q 46.4375 46.1875 49.015625 39.953125 
Q 51.609375 33.734375 51.609375 26.3125 
Q 51.609375 18.359375 48.75 11.984375 
Q 45.90625 5.609375 40.453125 2.21875 
Q 35.015625 -1.171875 29 -1.171875 
Q 24.609375 -1.171875 21.109375 0.6875 
Q 17.625 2.546875 15.375 5.375 
L 15.375 -19.875 
z
M 14.546875 25.640625 
Q 14.546875 15.625 18.59375 10.84375 
Q 22.65625 6.0625 28.421875 6.0625 
Q 34.28125 6.0625 38.453125 11.015625 
Q 42.625 15.96875 42.625 26.375 
Q 42.625 36.28125 38.546875 41.203125 
Q 34.46875 46.140625 28.8125 46.140625 
Q 23.1875 46.140625 18.859375 40.890625 
Q 14.546875 35.640625 14.546875 25.640625 
z
" id="ArialMT-112"/>
      <path d="M 40.234375 0 
L 40.234375 6.546875 
Q 35.296875 -1.171875 25.734375 -1.171875 
Q 19.53125 -1.171875 14.328125 2.25 
Q 9.125 5.671875 6.265625 11.796875 
Q 3.421875 17.921875 3.421875 25.875 
Q 3.421875 33.640625 6 39.96875 
Q 8.59375 46.296875 13.765625 49.65625 
Q 18.953125 53.03125 25.34375 53.03125 
Q 30.03125 53.03125 33.6875 51.046875 
Q 37.359375 49.078125 39.65625 45.90625 
L 39.65625 71.578125 
L 48.390625 71.578125 
L 48.390625 0 
z
M 12.453125 25.875 
Q 12.453125 15.921875 16.640625 10.984375 
Q 20.84375 6.0625 26.5625 6.0625 
Q 32.328125 6.0625 36.34375 10.765625 
Q 40.375 15.484375 40.375 25.140625 
Q 40.375 35.796875 36.265625 40.765625 
Q 32.171875 45.75 26.171875 45.75 
Q 20.3125 45.75 16.375 40.96875 
Q 12.453125 36.1875 12.453125 25.875 
z
" id="ArialMT-100"/>
      <path d="M 40.4375 19 
L 49.078125 17.875 
Q 47.65625 8.9375 41.8125 3.875 
Q 35.984375 -1.171875 27.484375 -1.171875 
Q 16.84375 -1.171875 10.375 5.78125 
Q 3.90625 12.75 3.90625 25.734375 
Q 3.90625 34.125 6.6875 40.421875 
Q 9.46875 46.734375 15.15625 49.875 
Q 20.84375 53.03125 27.546875 53.03125 
Q 35.984375 53.03125 41.359375 48.75 
Q 46.734375 44.484375 48.25 36.625 
L 39.703125 35.296875 
Q 38.484375 40.53125 35.375 43.15625 
Q 32.28125 45.796875 27.875 45.796875 
Q 21.234375 45.796875 17.078125 41.03125 
Q 12.9375 36.28125 12.9375 25.984375 
Q 12.9375 15.53125 16.9375 10.796875 
Q 20.953125 6.0625 27.390625 6.0625 
Q 32.5625 6.0625 36.03125 9.234375 
Q 39.5 12.40625 40.4375 19 
z
" id="ArialMT-99"/>
      <path d="M 40.578125 0 
L 40.578125 7.625 
Q 34.515625 -1.171875 24.125 -1.171875 
Q 19.53125 -1.171875 15.546875 0.578125 
Q 11.578125 2.34375 9.640625 5 
Q 7.71875 7.671875 6.9375 11.53125 
Q 6.390625 14.109375 6.390625 19.734375 
L 6.390625 51.859375 
L 15.1875 51.859375 
L 15.1875 23.09375 
Q 15.1875 16.21875 15.71875 13.8125 
Q 16.546875 10.359375 19.234375 8.375 
Q 21.921875 6.390625 25.875 6.390625 
Q 29.828125 6.390625 33.296875 8.421875 
Q 36.765625 10.453125 38.203125 13.9375 
Q 39.65625 17.4375 39.65625 24.078125 
L 39.65625 51.859375 
L 48.4375 51.859375 
L 48.4375 0 
z
" id="ArialMT-117"/>
      <path d="M 3.328125 25.921875 
Q 3.328125 40.328125 11.328125 47.265625 
Q 18.015625 53.03125 27.640625 53.03125 
Q 38.328125 53.03125 45.109375 46.015625 
Q 51.90625 39.015625 51.90625 26.65625 
Q 51.90625 16.65625 48.90625 10.90625 
Q 45.90625 5.171875 40.15625 2 
Q 34.421875 -1.171875 27.640625 -1.171875 
Q 16.75 -1.171875 10.03125 5.8125 
Q 3.328125 12.796875 3.328125 25.921875 
z
M 12.359375 25.921875 
Q 12.359375 15.96875 16.703125 11.015625 
Q 21.046875 6.0625 27.640625 6.0625 
Q 34.1875 6.0625 38.53125 11.03125 
Q 42.875 16.015625 42.875 26.21875 
Q 42.875 35.84375 38.5 40.796875 
Q 34.125 45.75 27.640625 45.75 
Q 21.046875 45.75 16.703125 40.8125 
Q 12.359375 35.890625 12.359375 25.921875 
z
" id="ArialMT-111"/>
      <path d="M 8.6875 0 
L 8.6875 45.015625 
L 0.921875 45.015625 
L 0.921875 51.859375 
L 8.6875 51.859375 
L 8.6875 57.375 
Q 8.6875 62.59375 9.625 65.140625 
Q 10.890625 68.5625 14.078125 70.671875 
Q 17.28125 72.796875 23.046875 72.796875 
Q 26.765625 72.796875 31.25 71.921875 
L 29.9375 64.265625 
Q 27.203125 64.75 24.75 64.75 
Q 20.75 64.75 19.09375 63.03125 
Q 17.4375 61.328125 17.4375 56.640625 
L 17.4375 51.859375 
L 27.546875 51.859375 
L 27.546875 45.015625 
L 17.4375 45.015625 
L 17.4375 0 
z
" id="ArialMT-102"/>
     </defs>
     <g style="fill:#262626;" transform="translate(152.325 274.660781)scale(0.09 -0.09)">
      <use transform="translate(0 0.234375)" xlink:href="#DejaVuSans-Oblique-952"/>
      <use transform="translate(61.181641 0.234375)" xlink:href="#ArialMT-32"/>
      <use transform="translate(88.964844 0.234375)" xlink:href="#ArialMT-119"/>
      <use transform="translate(161.181641 0.234375)" xlink:href="#ArialMT-46"/>
      <use transform="translate(188.964844 0.234375)" xlink:href="#ArialMT-114"/>
      <use transform="translate(222.265625 0.234375)" xlink:href="#ArialMT-46"/>
      <use transform="translate(250.048828 0.234375)" xlink:href="#ArialMT-116"/>
      <use transform="translate(277.832031 0.234375)" xlink:href="#ArialMT-32"/>
      <use transform="translate(305.615234 0.234375)" xlink:href="#ArialMT-97"/>
      <use transform="translate(361.230469 0.234375)" xlink:href="#ArialMT-32"/>
      <use transform="translate(389.013672 0.234375)" xlink:href="#ArialMT-108"/>
      <use transform="translate(411.230469 0.234375)" xlink:href="#ArialMT-105"/>
      <use transform="translate(433.447266 0.234375)" xlink:href="#ArialMT-110"/>
      <use transform="translate(489.0625 0.234375)" xlink:href="#ArialMT-101"/>
      <use transform="translate(544.677734 0.234375)" xlink:href="#ArialMT-32"/>
      <use transform="translate(572.460938 0.234375)" xlink:href="#ArialMT-112"/>
      <use transform="translate(628.076172 0.234375)" xlink:href="#ArialMT-101"/>
      <use transform="translate(683.691406 0.234375)" xlink:href="#ArialMT-114"/>
      <use transform="translate(716.992188 0.234375)" xlink:href="#ArialMT-112"/>
      <use transform="translate(772.607422 0.234375)" xlink:href="#ArialMT-101"/>
      <use transform="translate(828.222656 0.234375)" xlink:href="#ArialMT-110"/>
      <use transform="translate(883.837891 0.234375)" xlink:href="#ArialMT-100"/>
      <use transform="translate(939.453125 0.234375)" xlink:href="#ArialMT-105"/>
      <use transform="translate(961.669922 0.234375)" xlink:href="#ArialMT-99"/>
      <use transform="translate(1011.669922 0.234375)" xlink:href="#ArialMT-117"/>
      <use transform="translate(1067.285156 0.234375)" xlink:href="#ArialMT-108"/>
      <use transform="translate(1089.501953 0.234375)" xlink:href="#ArialMT-97"/>
      <use transform="translate(1145.117188 0.234375)" xlink:href="#ArialMT-114"/>
      <use transform="translate(1178.417969 0.234375)" xlink:href="#ArialMT-32"/>
      <use transform="translate(1206.201172 0.234375)" xlink:href="#ArialMT-116"/>
      <use transform="translate(1233.984375 0.234375)" xlink:href="#ArialMT-111"/>
      <use transform="translate(1289.599609 0.234375)" xlink:href="#ArialMT-32"/>
      <use transform="translate(1317.382812 0.234375)" xlink:href="#ArialMT-102"/>
      <use transform="translate(1345.166016 0.234375)" xlink:href="#ArialMT-97"/>
      <use transform="translate(1400.78125 0.234375)" xlink:href="#ArialMT-99"/>
      <use transform="translate(1450.78125 0.234375)" xlink:href="#ArialMT-101"/>
      <use transform="translate(1506.396484 0.234375)" xlink:href="#ArialMT-32"/>
     </g>
     <!-- (deg) -->
     <defs>
      <path d="M 23.390625 -21.046875 
Q 16.109375 -11.859375 11.078125 0.4375 
Q 6.0625 12.75 6.0625 25.921875 
Q 6.0625 37.546875 9.8125 48.1875 
Q 14.203125 60.546875 23.390625 72.796875 
L 29.6875 72.796875 
Q 23.78125 62.640625 21.875 58.296875 
Q 18.890625 51.5625 17.1875 44.234375 
Q 15.09375 35.109375 15.09375 25.875 
Q 15.09375 2.390625 29.6875 -21.046875 
z
" id="ArialMT-40"/>
      <path d="M 4.984375 -4.296875 
L 13.53125 -5.5625 
Q 14.0625 -9.515625 16.5 -11.328125 
Q 19.78125 -13.765625 25.4375 -13.765625 
Q 31.546875 -13.765625 34.859375 -11.328125 
Q 38.1875 -8.890625 39.359375 -4.5 
Q 40.046875 -1.8125 39.984375 6.78125 
Q 34.234375 0 25.640625 0 
Q 14.9375 0 9.078125 7.71875 
Q 3.21875 15.4375 3.21875 26.21875 
Q 3.21875 33.640625 5.90625 39.90625 
Q 8.59375 46.1875 13.6875 49.609375 
Q 18.796875 53.03125 25.6875 53.03125 
Q 34.859375 53.03125 40.828125 45.609375 
L 40.828125 51.859375 
L 48.921875 51.859375 
L 48.921875 7.03125 
Q 48.921875 -5.078125 46.453125 -10.125 
Q 44 -15.1875 38.640625 -18.109375 
Q 33.296875 -21.046875 25.484375 -21.046875 
Q 16.21875 -21.046875 10.5 -16.875 
Q 4.78125 -12.703125 4.984375 -4.296875 
z
M 12.25 26.859375 
Q 12.25 16.65625 16.296875 11.96875 
Q 20.359375 7.28125 26.46875 7.28125 
Q 32.515625 7.28125 36.609375 11.9375 
Q 40.71875 16.609375 40.71875 26.5625 
Q 40.71875 36.078125 36.5 40.90625 
Q 32.28125 45.75 26.3125 45.75 
Q 20.453125 45.75 16.34375 40.984375 
Q 12.25 36.234375 12.25 26.859375 
z
" id="ArialMT-103"/>
      <path d="M 12.359375 -21.046875 
L 6.0625 -21.046875 
Q 20.65625 2.390625 20.65625 25.875 
Q 20.65625 35.0625 18.5625 44.09375 
Q 16.890625 51.421875 13.921875 58.15625 
Q 12.015625 62.546875 6.0625 72.796875 
L 12.359375 72.796875 
Q 21.53125 60.546875 25.921875 48.1875 
Q 29.6875 37.546875 29.6875 25.921875 
Q 29.6875 12.75 24.625 0.4375 
Q 19.578125 -11.859375 12.359375 -21.046875 
z
" id="ArialMT-41"/>
     </defs>
     <g style="fill:#262626;" transform="translate(210.896016 284.322844)scale(0.09 -0.09)">
      <use xlink:href="#ArialMT-40"/>
      <use x="33.300781" xlink:href="#ArialMT-100"/>
      <use x="88.916016" xlink:href="#ArialMT-101"/>
      <use x="144.53125" xlink:href="#ArialMT-103"/>
      <use x="200.146484" xlink:href="#ArialMT-41"/>
     </g>
    </g>
   </g>
   <g id="matplotlib.axis_2">
    <g id="ytick_1">
     <g id="line2d_19">
      <path clip-path="url(#p702e582980)" d="M 54 246.832323 
L 388.8 246.832323 
" style="fill:none;stroke:#ffffff;stroke-linecap:round;stroke-width:0.8;"/>
     </g>
     <g id="line2d_20"/>
     <g id="text_11">
      <!-- 40 -->
      <defs>
       <path d="M 32.328125 0 
L 32.328125 17.140625 
L 1.265625 17.140625 
L 1.265625 25.203125 
L 33.9375 71.578125 
L 41.109375 71.578125 
L 41.109375 25.203125 
L 50.78125 25.203125 
L 50.78125 17.140625 
L 41.109375 17.140625 
L 41.109375 0 
z
M 32.328125 25.203125 
L 32.328125 57.46875 
L 9.90625 25.203125 
z
" id="ArialMT-52"/>
      </defs>
      <g style="fill:#262626;" transform="translate(40.490313 250.053338)scale(0.09 -0.09)">
       <use xlink:href="#ArialMT-52"/>
       <use x="55.615234" xlink:href="#ArialMT-48"/>
      </g>
     </g>
    </g>
    <g id="ytick_2">
     <g id="line2d_21">
      <path clip-path="url(#p702e582980)" d="M 54 220.537212 
L 388.8 220.537212 
" style="fill:none;stroke:#ffffff;stroke-linecap:round;stroke-width:0.8;"/>
     </g>
     <g id="line2d_22"/>
     <g id="text_12">
      <!-- 50 -->
      <g style="fill:#262626;" transform="translate(40.490313 223.758228)scale(0.09 -0.09)">
       <use xlink:href="#ArialMT-53"/>
       <use x="55.615234" xlink:href="#ArialMT-48"/>
      </g>
     </g>
    </g>
    <g id="ytick_3">
     <g id="line2d_23">
      <path clip-path="url(#p702e582980)" d="M 54 194.242102 
L 388.8 194.242102 
" style="fill:none;stroke:#ffffff;stroke-linecap:round;stroke-width:0.8;"/>
     </g>
     <g id="line2d_24"/>
     <g id="text_13">
      <!-- 60 -->
      <g style="fill:#262626;" transform="translate(40.490313 197.463118)scale(0.09 -0.09)">
       <use xlink:href="#ArialMT-54"/>
       <use x="55.615234" xlink:href="#ArialMT-48"/>
      </g>
     </g>
    </g>
    <g id="ytick_4">
     <g id="line2d_25">
      <path clip-path="url(#p702e582980)" d="M 54 167.946992 
L 388.8 167.946992 
" style="fill:none;stroke:#ffffff;stroke-linecap:round;stroke-width:0.8;"/>
     </g>
     <g id="line2d_26"/>
     <g id="text_14">
      <!-- 70 -->
      <g style="fill:#262626;" transform="translate(40.490313 171.168007)scale(0.09 -0.09)">
       <use xlink:href="#ArialMT-55"/>
       <use x="55.615234" xlink:href="#ArialMT-48"/>
      </g>
     </g>
    </g>
    <g id="ytick_5">
     <g id="line2d_27">
      <path clip-path="url(#p702e582980)" d="M 54 141.651881 
L 388.8 141.651881 
" style="fill:none;stroke:#ffffff;stroke-linecap:round;stroke-width:0.8;"/>
     </g>
     <g id="line2d_28"/>
     <g id="text_15">
      <!-- 80 -->
      <g style="fill:#262626;" transform="translate(40.490313 144.872897)scale(0.09 -0.09)">
       <use xlink:href="#ArialMT-56"/>
       <use x="55.615234" xlink:href="#ArialMT-48"/>
      </g>
     </g>
    </g>
    <g id="ytick_6">
     <g id="line2d_29">
      <path clip-path="url(#p702e582980)" d="M 54 115.356771 
L 388.8 115.356771 
" style="fill:none;stroke:#ffffff;stroke-linecap:round;stroke-width:0.8;"/>
     </g>
     <g id="line2d_30"/>
     <g id="text_16">
      <!-- 90 -->
      <g style="fill:#262626;" transform="translate(40.490313 118.577786)scale(0.09 -0.09)">
       <use xlink:href="#ArialMT-57"/>
       <use x="55.615234" xlink:href="#ArialMT-48"/>
      </g>
     </g>
    </g>
    <g id="ytick_7">
     <g id="line2d_31">
      <path clip-path="url(#p702e582980)" d="M 54 89.06166 
L 388.8 89.06166 
" style="fill:none;stroke:#ffffff;stroke-linecap:round;stroke-width:0.8;"/>
     </g>
     <g id="line2d_32"/>
     <g id="text_17">
      <!-- 100 -->
      <defs>
       <path d="M 37.25 0 
L 28.46875 0 
L 28.46875 56 
Q 25.296875 52.984375 20.140625 49.953125 
Q 14.984375 46.921875 10.890625 45.40625 
L 10.890625 53.90625 
Q 18.265625 57.375 23.78125 62.296875 
Q 29.296875 67.234375 31.59375 71.875 
L 37.25 71.875 
z
" id="ArialMT-49"/>
      </defs>
      <g style="fill:#262626;" transform="translate(35.485469 92.282676)scale(0.09 -0.09)">
       <use xlink:href="#ArialMT-49"/>
       <use x="55.615234" xlink:href="#ArialMT-48"/>
       <use x="111.230469" xlink:href="#ArialMT-48"/>
      </g>
     </g>
    </g>
    <g id="ytick_8">
     <g id="line2d_33">
      <path clip-path="url(#p702e582980)" d="M 54 62.76655 
L 388.8 62.76655 
" style="fill:none;stroke:#ffffff;stroke-linecap:round;stroke-width:0.8;"/>
     </g>
     <g id="line2d_34"/>
     <g id="text_18">
      <!-- 110 -->
      <g style="fill:#262626;" transform="translate(35.495312 65.987566)scale(0.09 -0.09)">
       <use xlink:href="#ArialMT-49"/>
       <use x="55.505859" xlink:href="#ArialMT-49"/>
       <use x="111.121094" xlink:href="#ArialMT-48"/>
      </g>
     </g>
    </g>
    <g id="ytick_9">
     <g id="line2d_35">
      <path clip-path="url(#p702e582980)" d="M 54 36.47144 
L 388.8 36.47144 
" style="fill:none;stroke:#ffffff;stroke-linecap:round;stroke-width:0.8;"/>
     </g>
     <g id="line2d_36"/>
     <g id="text_19">
      <!-- 120 -->
      <defs>
       <path d="M 50.34375 8.453125 
L 50.34375 0 
L 3.03125 0 
Q 2.9375 3.171875 4.046875 6.109375 
Q 5.859375 10.9375 9.828125 15.625 
Q 13.8125 20.3125 21.34375 26.46875 
Q 33.015625 36.03125 37.109375 41.625 
Q 41.21875 47.21875 41.21875 52.203125 
Q 41.21875 57.421875 37.46875 61 
Q 33.734375 64.59375 27.734375 64.59375 
Q 21.390625 64.59375 17.578125 60.78125 
Q 13.765625 56.984375 13.71875 50.25 
L 4.6875 51.171875 
Q 5.609375 61.28125 11.65625 66.578125 
Q 17.71875 71.875 27.9375 71.875 
Q 38.234375 71.875 44.234375 66.15625 
Q 50.25 60.453125 50.25 52 
Q 50.25 47.703125 48.484375 43.546875 
Q 46.734375 39.40625 42.65625 34.8125 
Q 38.578125 30.21875 29.109375 22.21875 
Q 21.1875 15.578125 18.9375 13.203125 
Q 16.703125 10.84375 15.234375 8.453125 
z
" id="ArialMT-50"/>
      </defs>
      <g style="fill:#262626;" transform="translate(35.485469 39.692455)scale(0.09 -0.09)">
       <use xlink:href="#ArialMT-49"/>
       <use x="55.615234" xlink:href="#ArialMT-50"/>
       <use x="111.230469" xlink:href="#ArialMT-48"/>
      </g>
     </g>
    </g>
    <g id="text_20">
     <!-- Field Depth (nm) -->
     <defs>
      <path d="M 8.203125 0 
L 8.203125 71.578125 
L 56.5 71.578125 
L 56.5 63.140625 
L 17.671875 63.140625 
L 17.671875 40.96875 
L 51.265625 40.96875 
L 51.265625 32.515625 
L 17.671875 32.515625 
L 17.671875 0 
z
" id="ArialMT-70"/>
      <path d="M 7.71875 0 
L 7.71875 71.578125 
L 32.375 71.578125 
Q 40.71875 71.578125 45.125 70.5625 
Q 51.265625 69.140625 55.609375 65.4375 
Q 61.28125 60.640625 64.078125 53.1875 
Q 66.890625 45.75 66.890625 36.1875 
Q 66.890625 28.03125 64.984375 21.734375 
Q 63.09375 15.4375 60.109375 11.296875 
Q 57.125 7.171875 53.578125 4.796875 
Q 50.046875 2.4375 45.046875 1.21875 
Q 40.046875 0 33.546875 0 
z
M 17.1875 8.453125 
L 32.46875 8.453125 
Q 39.546875 8.453125 43.578125 9.765625 
Q 47.609375 11.078125 50 13.484375 
Q 53.375 16.84375 55.25 22.53125 
Q 57.125 28.21875 57.125 36.328125 
Q 57.125 47.5625 53.4375 53.59375 
Q 49.75 59.625 44.484375 61.671875 
Q 40.671875 63.140625 32.234375 63.140625 
L 17.1875 63.140625 
z
" id="ArialMT-68"/>
      <path d="M 6.59375 0 
L 6.59375 71.578125 
L 15.375 71.578125 
L 15.375 45.90625 
Q 21.53125 53.03125 30.90625 53.03125 
Q 36.671875 53.03125 40.921875 50.75 
Q 45.171875 48.484375 47 44.484375 
Q 48.828125 40.484375 48.828125 32.859375 
L 48.828125 0 
L 40.046875 0 
L 40.046875 32.859375 
Q 40.046875 39.453125 37.1875 42.453125 
Q 34.328125 45.453125 29.109375 45.453125 
Q 25.203125 45.453125 21.75 43.421875 
Q 18.3125 41.40625 16.84375 37.9375 
Q 15.375 34.46875 15.375 28.375 
L 15.375 0 
z
" id="ArialMT-104"/>
      <path d="M 6.59375 0 
L 6.59375 51.859375 
L 14.453125 51.859375 
L 14.453125 44.578125 
Q 16.890625 48.390625 20.9375 50.703125 
Q 25 53.03125 30.171875 53.03125 
Q 35.9375 53.03125 39.625 50.640625 
Q 43.3125 48.25 44.828125 43.953125 
Q 50.984375 53.03125 60.84375 53.03125 
Q 68.5625 53.03125 72.703125 48.75 
Q 76.859375 44.484375 76.859375 35.59375 
L 76.859375 0 
L 68.109375 0 
L 68.109375 32.671875 
Q 68.109375 37.9375 67.25 40.25 
Q 66.40625 42.578125 64.15625 43.984375 
Q 61.921875 45.40625 58.890625 45.40625 
Q 53.421875 45.40625 49.796875 41.765625 
Q 46.1875 38.140625 46.1875 30.125 
L 46.1875 0 
L 37.40625 0 
L 37.40625 33.6875 
Q 37.40625 39.546875 35.25 42.46875 
Q 33.109375 45.40625 28.21875 45.40625 
Q 24.515625 45.40625 21.359375 43.453125 
Q 18.21875 41.5 16.796875 37.734375 
Q 15.375 33.984375 15.375 26.90625 
L 15.375 0 
z
" id="ArialMT-109"/>
     </defs>
     <g style="fill:#262626;" transform="translate(29.59125 176.788125)rotate(-90)scale(0.09 -0.09)">
      <use xlink:href="#ArialMT-70"/>
      <use x="61.083984" xlink:href="#ArialMT-105"/>
      <use x="83.300781" xlink:href="#ArialMT-101"/>
      <use x="138.916016" xlink:href="#ArialMT-108"/>
      <use x="161.132812" xlink:href="#ArialMT-100"/>
      <use x="216.748047" xlink:href="#ArialMT-32"/>
      <use x="244.53125" xlink:href="#ArialMT-68"/>
      <use x="316.748047" xlink:href="#ArialMT-101"/>
      <use x="372.363281" xlink:href="#ArialMT-112"/>
      <use x="427.978516" xlink:href="#ArialMT-116"/>
      <use x="455.761719" xlink:href="#ArialMT-104"/>
      <use x="511.376953" xlink:href="#ArialMT-32"/>
      <use x="539.160156" xlink:href="#ArialMT-40"/>
      <use x="572.460938" xlink:href="#ArialMT-110"/>
      <use x="628.076172" xlink:href="#ArialMT-109"/>
      <use x="711.376953" xlink:href="#ArialMT-41"/>
     </g>
    </g>
   </g>
   <g id="line2d_37">
    <path clip-path="url(#p702e582980)" d="M 191.268763 45.22444 
L 194.320027 54.180869 
L 197.371292 62.287504 
L 200.422556 69.664414 
L 203.473821 76.409057 
L 206.525085 82.601468 
L 209.57635 88.308067 
L 212.627614 93.584487 
L 215.678879 98.477727 
L 219.49296 104.115822 
L 223.30704 109.283163 
L 227.121121 114.034606 
L 230.935202 118.416243 
L 234.749282 122.467113 
L 238.563363 126.220519 
L 242.377444 129.705062 
L 246.95434 133.566166 
L 251.531237 137.112135 
L 256.108134 140.374112 
L 260.685031 143.378747 
L 265.261928 146.148977 
L 270.60164 149.110973 
L 275.941353 151.807909 
L 281.281066 154.2629 
L 286.620779 156.495758 
L 292.723308 158.797346 
L 298.825837 160.85271 
L 304.928366 162.680243 
L 311.030895 164.295522 
L 317.896241 165.875331 
L 324.761586 167.218798 
L 331.626931 168.338748 
L 338.492276 169.245531 
L 345.357621 169.947304 
L 352.985783 170.494062 
L 360.613944 170.801152 
L 368.242105 170.871821 
L 373.581818 170.781116 
L 373.581818 170.781116 
" style="fill:none;stroke:#1f77b4;stroke-linecap:round;stroke-width:2;"/>
   </g>
   <g id="line2d_38">
    <path clip-path="url(#p702e582980)" d="M 145.499795 45.732925 
L 147.788243 54.502402 
L 150.076692 62.507694 
L 152.36514 69.851132 
L 154.653589 76.616801 
L 157.704853 84.857946 
L 160.756118 92.330075 
L 163.807382 99.14166 
L 166.858647 105.380814 
L 169.909911 111.11995 
L 172.961176 116.419201 
L 176.01244 121.328975 
L 179.063705 125.891879 
L 182.877785 131.162515 
L 186.691866 136.007306 
L 190.505947 140.4761 
L 194.320027 144.610818 
L 198.134108 148.447 
L 202.711005 152.698779 
L 207.287902 156.608647 
L 211.864798 160.21404 
L 216.441695 163.546697 
L 221.018592 166.633724 
L 226.358305 169.955704 
L 231.698018 173.006572 
L 237.037731 175.813212 
L 243.14026 178.751091 
L 249.242789 181.429151 
L 255.345318 183.872174 
L 262.210663 186.365815 
L 269.076008 188.614185 
L 275.941353 190.638858 
L 283.569515 192.648293 
L 291.197676 194.425257 
L 298.825837 195.987469 
L 307.216815 197.475489 
L 315.607792 198.737888 
L 323.99877 199.787956 
L 333.152563 200.7038 
L 342.306357 201.390353 
L 351.46015 201.855474 
L 360.613944 202.104388 
L 369.767738 202.13986 
L 373.581818 202.091819 
L 373.581818 202.091819 
" style="fill:none;stroke:#ff7f0e;stroke-linecap:round;stroke-width:2;"/>
   </g>
   <g id="line2d_39">
    <path clip-path="url(#p702e582980)" d="M 122.615311 45.478772 
L 124.903759 55.340314 
L 127.192208 64.262681 
L 129.480656 72.383627 
L 131.769105 79.814153 
L 134.057553 86.644832 
L 137.108817 94.946635 
L 140.160082 102.457403 
L 143.211347 109.291761 
L 146.262611 115.542282 
L 149.313876 121.284654 
L 152.36514 126.581444 
L 155.416405 131.484883 
L 158.467669 136.03896 
L 162.28175 141.29663 
L 166.09583 146.127708 
L 169.909911 150.583144 
L 173.723992 154.705655 
L 177.538072 158.531361 
L 182.114969 162.773438 
L 186.691866 166.677213 
L 191.268763 170.280468 
L 195.84566 173.61518 
L 201.185373 177.202416 
L 206.525085 180.497825 
L 211.864798 183.5324 
L 217.204511 186.332483 
L 223.30704 189.274204 
L 229.409569 191.967661 
L 235.512098 194.43719 
L 242.377444 196.973498 
L 249.242789 199.277793 
L 256.87095 201.591856 
L 264.499111 203.670496 
L 272.890089 205.709824 
L 281.281066 207.512616 
L 289.672044 209.098202 
L 298.825837 210.599073 
L 307.979631 211.877866 
L 317.896241 213.028875 
L 327.81285 213.950017 
L 337.72946 214.652341 
L 347.64607 215.144044 
L 358.325496 215.44442 
L 369.004921 215.510944 
L 373.581818 215.468188 
L 373.581818 215.468188 
" style="fill:none;stroke:#2ca02c;stroke-linecap:round;stroke-width:2;"/>
   </g>
   <g id="line2d_40">
    <path clip-path="url(#p702e582980)" d="M 102.782092 45.597726 
L 105.07054 56.425491 
L 107.358988 66.142965 
L 109.647437 74.925501 
L 111.935885 82.911943 
L 114.224334 90.213851 
L 116.512782 96.922027 
L 119.564046 105.07003 
L 122.615311 112.437623 
L 125.666576 119.138949 
L 128.71784 125.266003 
L 131.769105 130.893867 
L 134.820369 136.084509 
L 137.871634 140.889584 
L 140.922898 145.352544 
L 144.736979 150.505752 
L 148.551059 155.242029 
L 152.36514 159.611531 
L 156.179221 163.65627 
L 159.993301 167.411737 
L 164.570198 171.578691 
L 169.147095 175.416543 
L 173.723992 178.962341 
L 178.300889 182.247421 
L 183.640602 185.785905 
L 188.980314 189.041696 
L 194.320027 192.045138 
L 200.422556 195.201548 
L 206.525085 198.094531 
L 212.627614 200.751598 
L 219.49296 203.487771 
L 226.358305 205.983066 
L 233.986466 208.501965 
L 241.614627 210.780386 
L 250.005605 213.036443 
L 258.396582 215.055361 
L 267.550376 217.012686 
L 276.70417 218.736885 
L 286.620779 220.364109 
L 296.537389 221.760767 
L 306.453999 222.943416 
L 317.133424 223.99302 
L 327.81285 224.823206 
L 339.255092 225.480684 
L 350.697334 225.906887 
L 362.139576 226.107531 
L 373.581818 226.085276 
L 373.581818 226.085276 
" style="fill:none;stroke:#d62728;stroke-linecap:round;stroke-width:2;"/>
   </g>
   <g id="line2d_41">
    <path clip-path="url(#p702e582980)" d="M 75.320711 44.443636 
L 77.609159 56.838182 
L 79.897608 67.818203 
L 82.186056 77.631733 
L 84.474504 86.46985 
L 86.762953 94.482465 
L 89.051401 101.78906 
L 91.33985 108.486198 
L 93.628298 114.652881 
L 96.679563 122.161318 
L 99.730827 128.967798 
L 102.782092 135.173039 
L 105.833356 140.85857 
L 108.884621 146.091184 
L 111.935885 150.9262 
L 114.98715 155.409873 
L 118.80123 160.579258 
L 122.615311 165.323878 
L 126.429392 169.69628 
L 130.243472 173.740267 
L 134.057553 177.492686 
L 138.63445 181.654382 
L 143.211347 185.486473 
L 147.788243 189.026982 
L 152.36514 192.307964 
L 157.704853 195.84387 
L 163.044566 199.100032 
L 168.384279 202.107228 
L 174.486808 205.272462 
L 180.589337 208.179413 
L 186.691866 210.855814 
L 193.557211 213.620349 
L 200.422556 216.15116 
L 208.050718 218.718066 
L 215.678879 221.053634 
L 224.069856 223.383285 
L 232.460834 225.487251 
L 241.614627 227.550717 
L 250.768421 229.395387 
L 260.685031 231.169856 
L 271.364457 232.84377 
L 282.043882 234.292919 
L 293.486124 235.616212 
L 304.928366 236.719408 
L 317.133424 237.669315 
L 329.338483 238.39797 
L 342.306357 238.940673 
L 355.274231 239.252718 
L 368.242105 239.338662 
L 373.581818 239.308736 
L 373.581818 239.308736 
" style="fill:none;stroke:#9467bd;stroke-linecap:round;stroke-width:2;"/>
   </g>
   <g id="line2d_42">
    <path clip-path="url(#p702e582980)" d="M 69.218182 44.529416 
L 71.50663 57.254255 
L 73.795079 68.494842 
L 76.083527 78.516982 
L 78.371975 87.524233 
L 80.660424 95.675479 
L 82.948872 103.096789 
L 85.237321 109.88965 
L 87.525769 116.136805 
L 90.577033 123.7337 
L 93.628298 130.611727 
L 96.679563 136.875376 
L 99.730827 142.608985 
L 102.782092 147.881476 
L 105.833356 152.749796 
L 108.884621 157.261468 
L 112.698701 162.459886 
L 116.512782 167.228291 
L 120.326863 171.620371 
L 124.140943 175.680805 
L 127.955024 179.447121 
L 132.531921 183.622871 
L 137.108817 187.466822 
L 141.685714 191.017547 
L 146.262611 194.307521 
L 151.602324 197.85281 
L 156.942037 201.117545 
L 162.28175 204.132815 
L 168.384279 207.306973 
L 174.486808 210.222785 
L 180.589337 212.9082 
L 187.454682 215.683261 
L 194.320027 218.225181 
L 201.948189 220.805289 
L 209.57635 223.155113 
L 217.967327 225.501813 
L 226.358305 227.624401 
L 235.512098 229.710118 
L 245.428708 231.725835 
L 255.345318 233.512538 
L 266.024744 235.204506 
L 276.70417 236.676701 
L 288.146411 238.030236 
L 300.35147 239.238207 
L 312.556528 240.219501 
L 325.524402 241.028629 
L 338.492276 241.608893 
L 351.46015 241.968667 
L 364.428025 242.113046 
L 373.581818 242.086493 
L 373.581818 242.086493 
" style="fill:none;stroke:#8c564b;stroke-linecap:round;stroke-width:2;"/>
   </g>
   <g id="patch_3">
    <path d="M 54 252 
L 54 34.56 
" style="fill:none;"/>
   </g>
   <g id="patch_4">
    <path d="M 388.8 252 
L 388.8 34.56 
" style="fill:none;"/>
   </g>
   <g id="patch_5">
    <path d="M 54 252 
L 388.8 252 
" style="fill:none;"/>
   </g>
   <g id="patch_6">
    <path d="M 54 34.56 
L 388.8 34.56 
" style="fill:none;"/>
   </g>
   <g id="text_21">
    <!-- d=$\frac{\lambda_0}{4\pi}$$[n^{2}_{1}sin^{2}\theta-n^{2}_{1}]^{-1/2}$ -->
    <defs>
     <path d="M 52.828125 42.09375 
L 5.5625 42.09375 
L 5.5625 50.296875 
L 52.828125 50.296875 
z
M 52.828125 20.359375 
L 5.5625 20.359375 
L 5.5625 28.5625 
L 52.828125 28.5625 
z
" id="ArialMT-61"/>
     <path d="M 36.71875 67.4375 
L 48.828125 0 
L 39.3125 0 
L 31.84375 40.4375 
L 5.125 0 
L -4.390625 0 
L 29.734375 52.4375 
L 28.03125 62.109375 
Q 26.953125 68.265625 21.734375 68.265625 
L 17.046875 68.265625 
L 18.5 75.984375 
L 24.21875 75.875 
Q 35.203125 75.734375 36.71875 67.4375 
z
" id="DejaVuSans-Oblique-955"/>
     <path d="M 31.78125 66.40625 
Q 24.171875 66.40625 20.328125 58.90625 
Q 16.5 51.421875 16.5 36.375 
Q 16.5 21.390625 20.328125 13.890625 
Q 24.171875 6.390625 31.78125 6.390625 
Q 39.453125 6.390625 43.28125 13.890625 
Q 47.125 21.390625 47.125 36.375 
Q 47.125 51.421875 43.28125 58.90625 
Q 39.453125 66.40625 31.78125 66.40625 
z
M 31.78125 74.21875 
Q 44.046875 74.21875 50.515625 64.515625 
Q 56.984375 54.828125 56.984375 36.375 
Q 56.984375 17.96875 50.515625 8.265625 
Q 44.046875 -1.421875 31.78125 -1.421875 
Q 19.53125 -1.421875 13.0625 8.265625 
Q 6.59375 17.96875 6.59375 36.375 
Q 6.59375 54.828125 13.0625 64.515625 
Q 19.53125 74.21875 31.78125 74.21875 
z
" id="DejaVuSans-48"/>
     <path d="M 37.796875 64.3125 
L 12.890625 25.390625 
L 37.796875 25.390625 
z
M 35.203125 72.90625 
L 47.609375 72.90625 
L 47.609375 25.390625 
L 58.015625 25.390625 
L 58.015625 17.1875 
L 47.609375 17.1875 
L 47.609375 0 
L 37.796875 0 
L 37.796875 17.1875 
L 4.890625 17.1875 
L 4.890625 26.703125 
z
" id="DejaVuSans-52"/>
     <path d="M 9.125 54.6875 
L 61.53125 54.6875 
L 59.765625 45.703125 
L 52.875 45.703125 
L 46.34375 12.109375 
Q 45.65625 8.59375 46.578125 7.03125 
Q 47.46875 5.515625 50.140625 5.515625 
Q 50.875 5.515625 51.953125 5.671875 
Q 53.078125 5.765625 53.421875 5.8125 
L 52.15625 -0.6875 
Q 50.34375 -1.3125 48.484375 -1.609375 
Q 46.578125 -1.90625 44.78125 -1.90625 
Q 38.921875 -1.90625 37.3125 1.265625 
Q 35.6875 4.5 37.359375 13.09375 
L 43.703125 45.703125 
L 23.53125 45.703125 
L 14.65625 0 
L 5.46875 0 
L 14.359375 45.703125 
L 7.375 45.703125 
z
" id="DejaVuSans-Oblique-960"/>
     <path d="M 8.59375 75.984375 
L 29.296875 75.984375 
L 29.296875 69 
L 17.578125 69 
L 17.578125 -6.203125 
L 29.296875 -6.203125 
L 29.296875 -13.1875 
L 8.59375 -13.1875 
z
" id="DejaVuSans-91"/>
     <path d="M 55.71875 33.015625 
L 49.3125 0 
L 40.28125 0 
L 46.6875 32.671875 
Q 47.125 34.96875 47.359375 36.71875 
Q 47.609375 38.484375 47.609375 39.5 
Q 47.609375 43.609375 45.015625 45.890625 
Q 42.4375 48.1875 37.796875 48.1875 
Q 30.5625 48.1875 25.34375 43.375 
Q 20.125 38.578125 18.5 30.328125 
L 12.5 0 
L 3.515625 0 
L 14.109375 54.6875 
L 23.09375 54.6875 
L 21.296875 46.09375 
Q 25.046875 50.828125 30.3125 53.40625 
Q 35.59375 56 41.40625 56 
Q 48.640625 56 52.609375 52.09375 
Q 56.59375 48.1875 56.59375 41.109375 
Q 56.59375 39.359375 56.375 37.359375 
Q 56.15625 35.359375 55.71875 33.015625 
z
" id="DejaVuSans-Oblique-110"/>
     <path d="M 19.1875 8.296875 
L 53.609375 8.296875 
L 53.609375 0 
L 7.328125 0 
L 7.328125 8.296875 
Q 12.9375 14.109375 22.625 23.890625 
Q 32.328125 33.6875 34.8125 36.53125 
Q 39.546875 41.84375 41.421875 45.53125 
Q 43.3125 49.21875 43.3125 52.78125 
Q 43.3125 58.59375 39.234375 62.25 
Q 35.15625 65.921875 28.609375 65.921875 
Q 23.96875 65.921875 18.8125 64.3125 
Q 13.671875 62.703125 7.8125 59.421875 
L 7.8125 69.390625 
Q 13.765625 71.78125 18.9375 73 
Q 24.125 74.21875 28.421875 74.21875 
Q 39.75 74.21875 46.484375 68.546875 
Q 53.21875 62.890625 53.21875 53.421875 
Q 53.21875 48.921875 51.53125 44.890625 
Q 49.859375 40.875 45.40625 35.40625 
Q 44.1875 33.984375 37.640625 27.21875 
Q 31.109375 20.453125 19.1875 8.296875 
z
" id="DejaVuSans-50"/>
     <path d="M 12.40625 8.296875 
L 28.515625 8.296875 
L 28.515625 63.921875 
L 10.984375 60.40625 
L 10.984375 69.390625 
L 28.421875 72.90625 
L 38.28125 72.90625 
L 38.28125 8.296875 
L 54.390625 8.296875 
L 54.390625 0 
L 12.40625 0 
z
" id="DejaVuSans-49"/>
     <path d="M 50 53.078125 
L 48.296875 44.578125 
Q 44.734375 46.53125 40.765625 47.5 
Q 36.8125 48.484375 32.625 48.484375 
Q 25.53125 48.484375 21.453125 46.0625 
Q 17.390625 43.65625 17.390625 39.5 
Q 17.390625 34.671875 26.859375 32.078125 
Q 27.59375 31.890625 27.9375 31.78125 
L 30.8125 30.90625 
Q 39.796875 28.421875 42.796875 25.6875 
Q 45.796875 22.953125 45.796875 18.21875 
Q 45.796875 9.515625 38.890625 4.046875 
Q 31.984375 -1.421875 20.796875 -1.421875 
Q 16.453125 -1.421875 11.671875 -0.578125 
Q 6.890625 0.25 1.125 2 
L 2.875 11.28125 
Q 7.8125 8.734375 12.59375 7.421875 
Q 17.390625 6.109375 21.78125 6.109375 
Q 28.375 6.109375 32.5 8.9375 
Q 36.625 11.765625 36.625 16.109375 
Q 36.625 20.796875 25.78125 23.6875 
L 24.859375 23.921875 
L 21.78125 24.703125 
Q 14.9375 26.515625 11.765625 29.46875 
Q 8.59375 32.421875 8.59375 37.015625 
Q 8.59375 45.75 15.15625 50.875 
Q 21.734375 56 33.015625 56 
Q 37.453125 56 41.671875 55.265625 
Q 45.90625 54.546875 50 53.078125 
z
" id="DejaVuSans-Oblique-115"/>
     <path d="M 18.3125 75.984375 
L 27.296875 75.984375 
L 25.09375 64.59375 
L 16.109375 64.59375 
z
M 14.203125 54.6875 
L 23.1875 54.6875 
L 12.5 0 
L 3.515625 0 
z
" id="DejaVuSans-Oblique-105"/>
     <path d="M 10.59375 35.5 
L 73.1875 35.5 
L 73.1875 27.203125 
L 10.59375 27.203125 
z
" id="DejaVuSans-8722"/>
     <path d="M 30.421875 75.984375 
L 30.421875 -13.1875 
L 9.71875 -13.1875 
L 9.71875 -6.203125 
L 21.390625 -6.203125 
L 21.390625 69 
L 9.71875 69 
L 9.71875 75.984375 
z
" id="DejaVuSans-93"/>
     <path d="M 25.390625 72.90625 
L 33.6875 72.90625 
L 8.296875 -9.28125 
L 0 -9.28125 
z
" id="DejaVuSans-47"/>
    </defs>
    <g style="fill:#262626;" transform="translate(61.590021 241.573301)scale(0.09 -0.09)">
     <use transform="translate(0 0.832969)" xlink:href="#ArialMT-100"/>
     <use transform="translate(55.615234 0.832969)" xlink:href="#ArialMT-61"/>
     <use transform="translate(120.013672 56.810938)scale(0.7)" xlink:href="#DejaVuSans-Oblique-955"/>
     <use transform="translate(161.439453 45.326562)scale(0.49)" xlink:href="#DejaVuSans-48"/>
     <use transform="translate(114.013672 -37.654531)scale(0.7)" xlink:href="#DejaVuSans-52"/>
     <use transform="translate(158.549805 -37.654531)scale(0.7)" xlink:href="#DejaVuSans-Oblique-960"/>
     <use transform="translate(213.193359 0.832969)" xlink:href="#DejaVuSans-91"/>
     <use transform="translate(252.207031 0.832969)" xlink:href="#DejaVuSans-Oblique-110"/>
     <use transform="translate(320.235833 39.114219)scale(0.7)" xlink:href="#DejaVuSans-50"/>
     <use transform="translate(315.585938 -26.510781)scale(0.7)" xlink:href="#DejaVuSans-49"/>
     <use transform="translate(367.506341 0.832969)" xlink:href="#DejaVuSans-Oblique-115"/>
     <use transform="translate(419.605951 0.832969)" xlink:href="#DejaVuSans-Oblique-105"/>
     <use transform="translate(447.389154 0.832969)" xlink:href="#DejaVuSans-Oblique-110"/>
     <use transform="translate(515.417956 39.114219)scale(0.7)" xlink:href="#DejaVuSans-50"/>
     <use transform="translate(562.688464 0.832969)" xlink:href="#DejaVuSans-Oblique-952"/>
     <use transform="translate(643.352526 0.832969)" xlink:href="#DejaVuSans-8722"/>
     <use transform="translate(746.62401 0.832969)" xlink:href="#DejaVuSans-Oblique-110"/>
     <use transform="translate(814.652812 39.114219)scale(0.7)" xlink:href="#DejaVuSans-50"/>
     <use transform="translate(810.002917 -26.510781)scale(0.7)" xlink:href="#DejaVuSans-49"/>
     <use transform="translate(861.92332 0.832969)" xlink:href="#DejaVuSans-93"/>
     <use transform="translate(901.894023 39.114219)scale(0.7)" xlink:href="#DejaVuSans-8722"/>
     <use transform="translate(960.546367 39.114219)scale(0.7)" xlink:href="#DejaVuSans-49"/>
     <use transform="translate(1005.0825 39.114219)scale(0.7)" xlink:href="#DejaVuSans-47"/>
     <use transform="translate(1028.633672 39.114219)scale(0.7)" xlink:href="#DejaVuSans-50"/>
     <path d="M 114.013672 19.629844 
L 114.013672 25.879844 
L 200.693359 25.879844 
L 200.693359 19.629844 
L 114.013672 19.629844 
z
"/>
    </g>
   </g>
   <g id="text_22">
    <!-- Evanescent Field Depths at Different RIs  -->
    <defs>
     <path d="M 7.90625 0 
L 7.90625 71.578125 
L 59.671875 71.578125 
L 59.671875 63.140625 
L 17.390625 63.140625 
L 17.390625 41.21875 
L 56.984375 41.21875 
L 56.984375 32.8125 
L 17.390625 32.8125 
L 17.390625 8.453125 
L 61.328125 8.453125 
L 61.328125 0 
z
" id="ArialMT-69"/>
     <path d="M 21 0 
L 1.265625 51.859375 
L 10.546875 51.859375 
L 21.6875 20.796875 
Q 23.484375 15.765625 25 10.359375 
Q 26.171875 14.453125 28.265625 20.21875 
L 39.796875 51.859375 
L 48.828125 51.859375 
L 29.203125 0 
z
" id="ArialMT-118"/>
     <path d="M 3.078125 15.484375 
L 11.765625 16.84375 
Q 12.5 11.625 15.84375 8.84375 
Q 19.1875 6.0625 25.203125 6.0625 
Q 31.25 6.0625 34.171875 8.515625 
Q 37.109375 10.984375 37.109375 14.3125 
Q 37.109375 17.28125 34.515625 19 
Q 32.71875 20.171875 25.53125 21.96875 
Q 15.875 24.421875 12.140625 26.203125 
Q 8.40625 27.984375 6.46875 31.125 
Q 4.546875 34.28125 4.546875 38.09375 
Q 4.546875 41.546875 6.125 44.5 
Q 7.71875 47.46875 10.453125 49.421875 
Q 12.5 50.921875 16.03125 51.96875 
Q 19.578125 53.03125 23.640625 53.03125 
Q 29.734375 53.03125 34.34375 51.265625 
Q 38.96875 49.515625 41.15625 46.5 
Q 43.359375 43.5 44.1875 38.484375 
L 35.59375 37.3125 
Q 35.015625 41.3125 32.203125 43.546875 
Q 29.390625 45.796875 24.265625 45.796875 
Q 18.21875 45.796875 15.625 43.796875 
Q 13.03125 41.796875 13.03125 39.109375 
Q 13.03125 37.40625 14.109375 36.03125 
Q 15.1875 34.625 17.484375 33.6875 
Q 18.796875 33.203125 25.25 31.453125 
Q 34.578125 28.953125 38.25 27.359375 
Q 41.9375 25.78125 44.03125 22.75 
Q 46.140625 19.734375 46.140625 15.234375 
Q 46.140625 10.84375 43.578125 6.953125 
Q 41.015625 3.078125 36.171875 0.953125 
Q 31.34375 -1.171875 25.25 -1.171875 
Q 15.140625 -1.171875 9.84375 3.03125 
Q 4.546875 7.234375 3.078125 15.484375 
z
" id="ArialMT-115"/>
     <path d="M 7.859375 0 
L 7.859375 71.578125 
L 39.59375 71.578125 
Q 49.171875 71.578125 54.140625 69.640625 
Q 59.125 67.71875 62.109375 62.828125 
Q 65.09375 57.953125 65.09375 52.046875 
Q 65.09375 44.4375 60.15625 39.203125 
Q 55.21875 33.984375 44.921875 32.5625 
Q 48.6875 30.765625 50.640625 29 
Q 54.78125 25.203125 58.5 19.484375 
L 70.953125 0 
L 59.03125 0 
L 49.5625 14.890625 
Q 45.40625 21.34375 42.71875 24.75 
Q 40.046875 28.171875 37.921875 29.53125 
Q 35.796875 30.90625 33.59375 31.453125 
Q 31.984375 31.78125 28.328125 31.78125 
L 17.328125 31.78125 
L 17.328125 0 
z
M 17.328125 39.984375 
L 37.703125 39.984375 
Q 44.1875 39.984375 47.84375 41.328125 
Q 51.515625 42.671875 53.421875 45.625 
Q 55.328125 48.578125 55.328125 52.046875 
Q 55.328125 57.125 51.640625 60.390625 
Q 47.953125 63.671875 39.984375 63.671875 
L 17.328125 63.671875 
z
" id="ArialMT-82"/>
     <path d="M 9.328125 0 
L 9.328125 71.578125 
L 18.796875 71.578125 
L 18.796875 0 
z
" id="ArialMT-73"/>
    </defs>
    <g style="fill:#262626;" transform="translate(122.360625 17.136975)scale(0.108 -0.108)">
     <use xlink:href="#ArialMT-69"/>
     <use x="66.699219" xlink:href="#ArialMT-118"/>
     <use x="116.699219" xlink:href="#ArialMT-97"/>
     <use x="172.314453" xlink:href="#ArialMT-110"/>
     <use x="227.929688" xlink:href="#ArialMT-101"/>
     <use x="283.544922" xlink:href="#ArialMT-115"/>
     <use x="333.544922" xlink:href="#ArialMT-99"/>
     <use x="383.544922" xlink:href="#ArialMT-101"/>
     <use x="439.160156" xlink:href="#ArialMT-110"/>
     <use x="494.775391" xlink:href="#ArialMT-116"/>
     <use x="522.558594" xlink:href="#ArialMT-32"/>
     <use x="550.341797" xlink:href="#ArialMT-70"/>
     <use x="611.425781" xlink:href="#ArialMT-105"/>
     <use x="633.642578" xlink:href="#ArialMT-101"/>
     <use x="689.257812" xlink:href="#ArialMT-108"/>
     <use x="711.474609" xlink:href="#ArialMT-100"/>
     <use x="767.089844" xlink:href="#ArialMT-32"/>
     <use x="794.873047" xlink:href="#ArialMT-68"/>
     <use x="867.089844" xlink:href="#ArialMT-101"/>
     <use x="922.705078" xlink:href="#ArialMT-112"/>
     <use x="978.320312" xlink:href="#ArialMT-116"/>
     <use x="1006.103516" xlink:href="#ArialMT-104"/>
     <use x="1061.71875" xlink:href="#ArialMT-115"/>
     <use x="1111.71875" xlink:href="#ArialMT-32"/>
     <use x="1139.501953" xlink:href="#ArialMT-97"/>
     <use x="1195.117188" xlink:href="#ArialMT-116"/>
     <use x="1222.900391" xlink:href="#ArialMT-32"/>
     <use x="1250.683594" xlink:href="#ArialMT-68"/>
     <use x="1322.900391" xlink:href="#ArialMT-105"/>
     <use x="1345.117188" xlink:href="#ArialMT-102"/>
     <use x="1372.884766" xlink:href="#ArialMT-102"/>
     <use x="1400.667969" xlink:href="#ArialMT-101"/>
     <use x="1456.283203" xlink:href="#ArialMT-114"/>
     <use x="1489.583984" xlink:href="#ArialMT-101"/>
     <use x="1545.199219" xlink:href="#ArialMT-110"/>
     <use x="1600.814453" xlink:href="#ArialMT-116"/>
     <use x="1628.597656" xlink:href="#ArialMT-32"/>
     <use x="1656.380859" xlink:href="#ArialMT-82"/>
     <use x="1728.597656" xlink:href="#ArialMT-73"/>
     <use x="1756.380859" xlink:href="#ArialMT-115"/>
     <use x="1806.380859" xlink:href="#ArialMT-32"/>
    </g>
    <!-- $\lambda$=637 nm -->
    <defs>
     <path d="M 4.203125 18.890625 
L 12.984375 20.0625 
Q 14.5 12.59375 18.140625 9.296875 
Q 21.78125 6 27 6 
Q 33.203125 6 37.46875 10.296875 
Q 41.75 14.59375 41.75 20.953125 
Q 41.75 27 37.796875 30.921875 
Q 33.84375 34.859375 27.734375 34.859375 
Q 25.25 34.859375 21.53125 33.890625 
L 22.515625 41.609375 
Q 23.390625 41.5 23.921875 41.5 
Q 29.546875 41.5 34.03125 44.421875 
Q 38.53125 47.359375 38.53125 53.46875 
Q 38.53125 58.296875 35.25 61.46875 
Q 31.984375 64.65625 26.8125 64.65625 
Q 21.6875 64.65625 18.265625 61.421875 
Q 14.84375 58.203125 13.875 51.765625 
L 5.078125 53.328125 
Q 6.6875 62.15625 12.390625 67.015625 
Q 18.109375 71.875 26.609375 71.875 
Q 32.46875 71.875 37.390625 69.359375 
Q 42.328125 66.84375 44.9375 62.5 
Q 47.5625 58.15625 47.5625 53.265625 
Q 47.5625 48.640625 45.0625 44.828125 
Q 42.578125 41.015625 37.703125 38.765625 
Q 44.046875 37.3125 47.5625 32.6875 
Q 51.078125 28.078125 51.078125 21.140625 
Q 51.078125 11.765625 44.234375 5.25 
Q 37.40625 -1.265625 26.953125 -1.265625 
Q 17.53125 -1.265625 11.296875 4.34375 
Q 5.078125 9.96875 4.203125 18.890625 
z
" id="ArialMT-51"/>
    </defs>
    <g style="fill:#262626;" transform="translate(196.992 28.56)scale(0.108 -0.108)">
     <use transform="translate(0 0.015625)" xlink:href="#DejaVuSans-Oblique-955"/>
     <use transform="translate(59.179688 0.015625)" xlink:href="#ArialMT-61"/>
     <use transform="translate(117.578125 0.015625)" xlink:href="#ArialMT-54"/>
     <use transform="translate(173.193359 0.015625)" xlink:href="#ArialMT-51"/>
     <use transform="translate(228.808594 0.015625)" xlink:href="#ArialMT-55"/>
     <use transform="translate(284.423828 0.015625)" xlink:href="#ArialMT-32"/>
     <use transform="translate(312.207031 0.015625)" xlink:href="#ArialMT-110"/>
     <use transform="translate(367.822266 0.015625)" xlink:href="#ArialMT-109"/>
    </g>
   </g>
   <g id="legend_1">
    <g id="line2d_43">
     <path d="M 304.723125 45.952031 
L 322.723125 45.952031 
" style="fill:none;stroke:#1f77b4;stroke-linecap:round;stroke-width:2;"/>
    </g>
    <g id="line2d_44"/>
    <g id="text_23">
     <!-- N1 RI = 1.52 -->
     <defs>
      <path d="M 7.625 0 
L 7.625 71.578125 
L 17.328125 71.578125 
L 54.9375 15.375 
L 54.9375 71.578125 
L 64.015625 71.578125 
L 64.015625 0 
L 54.296875 0 
L 16.703125 56.25 
L 16.703125 0 
z
" id="ArialMT-78"/>
     </defs>
     <g style="fill:#262626;" transform="translate(329.923125 49.102031)scale(0.09 -0.09)">
      <use xlink:href="#ArialMT-78"/>
      <use x="72.216797" xlink:href="#ArialMT-49"/>
      <use x="127.832031" xlink:href="#ArialMT-32"/>
      <use x="155.615234" xlink:href="#ArialMT-82"/>
      <use x="227.832031" xlink:href="#ArialMT-73"/>
      <use x="255.615234" xlink:href="#ArialMT-32"/>
      <use x="283.398438" xlink:href="#ArialMT-61"/>
      <use x="341.796875" xlink:href="#ArialMT-32"/>
      <use x="369.580078" xlink:href="#ArialMT-49"/>
      <use x="425.195312" xlink:href="#ArialMT-46"/>
      <use x="452.978516" xlink:href="#ArialMT-53"/>
      <use x="508.59375" xlink:href="#ArialMT-50"/>
     </g>
    </g>
    <g id="line2d_45">
     <path d="M 304.723125 58.682813 
L 322.723125 58.682813 
" style="fill:none;stroke:#ff7f0e;stroke-linecap:round;stroke-width:2;"/>
    </g>
    <g id="line2d_46"/>
    <g id="text_24">
     <!-- N1 RI = 1.6 -->
     <g style="fill:#262626;" transform="translate(329.923125 61.832813)scale(0.09 -0.09)">
      <use xlink:href="#ArialMT-78"/>
      <use x="72.216797" xlink:href="#ArialMT-49"/>
      <use x="127.832031" xlink:href="#ArialMT-32"/>
      <use x="155.615234" xlink:href="#ArialMT-82"/>
      <use x="227.832031" xlink:href="#ArialMT-73"/>
      <use x="255.615234" xlink:href="#ArialMT-32"/>
      <use x="283.398438" xlink:href="#ArialMT-61"/>
      <use x="341.796875" xlink:href="#ArialMT-32"/>
      <use x="369.580078" xlink:href="#ArialMT-49"/>
      <use x="425.195312" xlink:href="#ArialMT-46"/>
      <use x="452.978516" xlink:href="#ArialMT-54"/>
     </g>
    </g>
    <g id="line2d_47">
     <path d="M 304.723125 71.413594 
L 322.723125 71.413594 
" style="fill:none;stroke:#2ca02c;stroke-linecap:round;stroke-width:2;"/>
    </g>
    <g id="line2d_48"/>
    <g id="text_25">
     <!-- N1 RI = 1.65 -->
     <g style="fill:#262626;" transform="translate(329.923125 74.563594)scale(0.09 -0.09)">
      <use xlink:href="#ArialMT-78"/>
      <use x="72.216797" xlink:href="#ArialMT-49"/>
      <use x="127.832031" xlink:href="#ArialMT-32"/>
      <use x="155.615234" xlink:href="#ArialMT-82"/>
      <use x="227.832031" xlink:href="#ArialMT-73"/>
      <use x="255.615234" xlink:href="#ArialMT-32"/>
      <use x="283.398438" xlink:href="#ArialMT-61"/>
      <use x="341.796875" xlink:href="#ArialMT-32"/>
      <use x="369.580078" xlink:href="#ArialMT-49"/>
      <use x="425.195312" xlink:href="#ArialMT-46"/>
      <use x="452.978516" xlink:href="#ArialMT-54"/>
      <use x="508.59375" xlink:href="#ArialMT-53"/>
     </g>
    </g>
    <g id="line2d_49">
     <path d="M 304.723125 84.144375 
L 322.723125 84.144375 
" style="fill:none;stroke:#d62728;stroke-linecap:round;stroke-width:2;"/>
    </g>
    <g id="line2d_50"/>
    <g id="text_26">
     <!-- N1 RI = 1.7 -->
     <g style="fill:#262626;" transform="translate(329.923125 87.294375)scale(0.09 -0.09)">
      <use xlink:href="#ArialMT-78"/>
      <use x="72.216797" xlink:href="#ArialMT-49"/>
      <use x="127.832031" xlink:href="#ArialMT-32"/>
      <use x="155.615234" xlink:href="#ArialMT-82"/>
      <use x="227.832031" xlink:href="#ArialMT-73"/>
      <use x="255.615234" xlink:href="#ArialMT-32"/>
      <use x="283.398438" xlink:href="#ArialMT-61"/>
      <use x="341.796875" xlink:href="#ArialMT-32"/>
      <use x="369.580078" xlink:href="#ArialMT-49"/>
      <use x="425.195312" xlink:href="#ArialMT-46"/>
      <use x="452.978516" xlink:href="#ArialMT-55"/>
     </g>
    </g>
    <g id="line2d_51">
     <path d="M 304.723125 96.875156 
L 322.723125 96.875156 
" style="fill:none;stroke:#9467bd;stroke-linecap:round;stroke-width:2;"/>
    </g>
    <g id="line2d_52"/>
    <g id="text_27">
     <!-- N1 RI = 1.78 -->
     <g style="fill:#262626;" transform="translate(329.923125 100.025156)scale(0.09 -0.09)">
      <use xlink:href="#ArialMT-78"/>
      <use x="72.216797" xlink:href="#ArialMT-49"/>
      <use x="127.832031" xlink:href="#ArialMT-32"/>
      <use x="155.615234" xlink:href="#ArialMT-82"/>
      <use x="227.832031" xlink:href="#ArialMT-73"/>
      <use x="255.615234" xlink:href="#ArialMT-32"/>
      <use x="283.398438" xlink:href="#ArialMT-61"/>
      <use x="341.796875" xlink:href="#ArialMT-32"/>
      <use x="369.580078" xlink:href="#ArialMT-49"/>
      <use x="425.195312" xlink:href="#ArialMT-46"/>
      <use x="452.978516" xlink:href="#ArialMT-55"/>
      <use x="508.59375" xlink:href="#ArialMT-56"/>
     </g>
    </g>
    <g id="line2d_53">
     <path d="M 304.723125 109.605938 
L 322.723125 109.605938 
" style="fill:none;stroke:#8c564b;stroke-linecap:round;stroke-width:2;"/>
    </g>
    <g id="line2d_54"/>
    <g id="text_28">
     <!-- N1 RI = 1.8 -->
     <g style="fill:#262626;" transform="translate(329.923125 112.755938)scale(0.09 -0.09)">
      <use xlink:href="#ArialMT-78"/>
      <use x="72.216797" xlink:href="#ArialMT-49"/>
      <use x="127.832031" xlink:href="#ArialMT-32"/>
      <use x="155.615234" xlink:href="#ArialMT-82"/>
      <use x="227.832031" xlink:href="#ArialMT-73"/>
      <use x="255.615234" xlink:href="#ArialMT-32"/>
      <use x="283.398438" xlink:href="#ArialMT-61"/>
      <use x="341.796875" xlink:href="#ArialMT-32"/>
      <use x="369.580078" xlink:href="#ArialMT-49"/>
      <use x="425.195312" xlink:href="#ArialMT-46"/>
      <use x="452.978516" xlink:href="#ArialMT-56"/>
     </g>
    </g>
   </g>
  </g>
 </g>
 <defs>
  <clipPath id="p702e582980">
   <rect height="217.44" width="334.8" x="54" y="34.56"/>
  </clipPath>
 </defs>
</svg>
